<mxfile host="app.diagrams.net" modified="2024-06-18T16:47:06.369Z" agent="Mozilla/5.0 (X11; Linux x86_64) AppleWebKit/537.36 (KHTML, like Gecko) Chrome/125.0.0.0 Safari/537.36" etag="CzILA01E-q6tVMgjdNH0" version="24.5.5" type="github">
  <diagram name="Page-1" id="5ze08uTGLaOaR45wAVp4">
    <mxGraphModel dx="1312" dy="859" grid="0" gridSize="10" guides="1" tooltips="1" connect="1" arrows="1" fold="1" page="0" pageScale="1" pageWidth="850" pageHeight="1100" math="0" shadow="0">
      <root>
        <mxCell id="0" />
        <mxCell id="1" parent="0" />
        <mxCell id="agj2CQUIJb-gGy5Obl66-3" value="" style="sketch=0;points=[[0.015,0.015,0],[0.985,0.015,0],[0.985,0.985,0],[0.015,0.985,0],[0.25,0,0],[0.5,0,0],[0.75,0,0],[1,0.25,0],[1,0.5,0],[1,0.75,0],[0.75,1,0],[0.5,1,0],[0.25,1,0],[0,0.75,0],[0,0.5,0],[0,0.25,0]];verticalLabelPosition=bottom;html=1;verticalAlign=top;aspect=fixed;align=center;pointerEvents=1;shape=mxgraph.cisco19.rect;prIcon=l2_switch;fillColor=#FAFAFA;strokeColor=#005073;" parent="1" vertex="1">
          <mxGeometry x="232" y="185" width="50" height="50" as="geometry" />
        </mxCell>
        <mxCell id="agj2CQUIJb-gGy5Obl66-5" value="" style="image;points=[];aspect=fixed;html=1;align=center;shadow=0;dashed=0;image=img/lib/allied_telesis/computer_and_terminals/Personal_Computer_with_Server.svg;" parent="1" vertex="1">
          <mxGeometry x="-7" y="138" width="104.4" height="104.4" as="geometry" />
        </mxCell>
        <mxCell id="agj2CQUIJb-gGy5Obl66-6" value="" style="image;points=[];aspect=fixed;html=1;align=center;shadow=0;dashed=0;image=img/lib/allied_telesis/computer_and_terminals/Server_Desktop.svg;" parent="1" vertex="1">
          <mxGeometry x="426" y="141" width="80" height="101.4" as="geometry" />
        </mxCell>
        <mxCell id="agj2CQUIJb-gGy5Obl66-7" value="" style="endArrow=none;html=1;rounded=0;fontSize=12;startSize=8;endSize=8;curved=1;exitX=1;exitY=0.5;exitDx=0;exitDy=0;exitPerimeter=0;strokeWidth=3;" parent="1" source="agj2CQUIJb-gGy5Obl66-3" edge="1">
          <mxGeometry width="50" height="50" relative="1" as="geometry">
            <mxPoint x="281" y="225" as="sourcePoint" />
            <mxPoint x="424" y="210" as="targetPoint" />
          </mxGeometry>
        </mxCell>
        <mxCell id="agj2CQUIJb-gGy5Obl66-8" value="" style="endArrow=none;html=1;rounded=0;fontSize=12;startSize=8;endSize=8;curved=1;exitX=0.996;exitY=0.69;exitDx=0;exitDy=0;exitPerimeter=0;entryX=0;entryY=0.5;entryDx=0;entryDy=0;entryPerimeter=0;strokeWidth=3;" parent="1" source="agj2CQUIJb-gGy5Obl66-5" target="agj2CQUIJb-gGy5Obl66-3" edge="1">
          <mxGeometry width="50" height="50" relative="1" as="geometry">
            <mxPoint x="281" y="225" as="sourcePoint" />
            <mxPoint x="331" y="175" as="targetPoint" />
          </mxGeometry>
        </mxCell>
        <mxCell id="agj2CQUIJb-gGy5Obl66-9" value="D_P: 30&lt;br&gt;Port: 13/2" style="text;strokeColor=none;fillColor=none;html=1;align=center;verticalAlign=middle;whiteSpace=wrap;rounded=0;fontSize=16;" parent="1" vertex="1">
          <mxGeometry x="126" y="164" width="78" height="30" as="geometry" />
        </mxCell>
        <mxCell id="agj2CQUIJb-gGy5Obl66-10" value="D_P: 48&lt;br&gt;Port: 23/0" style="text;strokeColor=none;fillColor=none;html=1;align=center;verticalAlign=middle;whiteSpace=wrap;rounded=0;fontSize=16;" parent="1" vertex="1">
          <mxGeometry x="315" y="164" width="78" height="30" as="geometry" />
        </mxCell>
        <mxCell id="agj2CQUIJb-gGy5Obl66-11" value="Name: Desktop/eoza&lt;div&gt;Interface: ens4f0&lt;/div&gt;&lt;div&gt;IP: 192.168.100.225&lt;/div&gt;&lt;div&gt;MAC: 64:9d:99:b1:60:ea&lt;/div&gt;" style="text;strokeColor=none;fillColor=none;html=1;align=center;verticalAlign=middle;whiteSpace=wrap;rounded=0;fontSize=16;" parent="1" vertex="1">
          <mxGeometry x="-40" y="252" width="190" height="86" as="geometry" />
        </mxCell>
        <mxCell id="agj2CQUIJb-gGy5Obl66-12" value="Name: Server/minza&lt;div&gt;Interface: ens1f0&lt;/div&gt;&lt;div&gt;IP: 192.168.100.100&lt;/div&gt;&lt;div&gt;MAC: 64:9d:99:b1:64:3e&lt;/div&gt;" style="text;strokeColor=none;fillColor=none;html=1;align=center;verticalAlign=middle;whiteSpace=wrap;rounded=0;fontSize=16;" parent="1" vertex="1">
          <mxGeometry x="367" y="256" width="190" height="86" as="geometry" />
        </mxCell>
        <mxCell id="agj2CQUIJb-gGy5Obl66-13" value="Tofino Wedge" style="text;strokeColor=none;fillColor=none;html=1;align=center;verticalAlign=middle;whiteSpace=wrap;rounded=0;fontSize=16;" parent="1" vertex="1">
          <mxGeometry x="227" y="240" width="60" height="30" as="geometry" />
        </mxCell>
        <mxCell id="agj2CQUIJb-gGy5Obl66-14" value="OpenBMC IP: 10.51.49.237&lt;div&gt;ONL IP: 10.51.49.239&lt;/div&gt;" style="text;strokeColor=none;fillColor=none;html=1;align=center;verticalAlign=middle;whiteSpace=wrap;rounded=0;fontSize=16;" parent="1" vertex="1">
          <mxGeometry x="130" y="101" width="263" height="30" as="geometry" />
        </mxCell>
      </root>
    </mxGraphModel>
  </diagram>
</mxfile>
